<svg xmlns="http://www.w3.org/2000/svg"  viewBox="0 0 64 64" width="64px" height="64px"><path fill="#72caaf" d="M57,13v38c0,3.31-2.69,6-6,6H13c-3.31,0-6-2.69-6-6V13c0-3.31,2.69-6,6-6h38C54.31,7,57,9.69,57,13z"/><path fill="#97e0bb" d="M53,7H11l-4,4c0,1.657,1.343,3,3,3h44c1.657,0,3-1.343,3-3L53,7z"/><path fill="#8d6c9f" d="M51,58H13c-3.859,0-7-3.141-7-7V13c0-3.859,3.141-7,7-7h38c3.859,0,7,3.141,7,7v38	C58,54.859,54.859,58,51,58z M13,8c-2.757,0-5,2.243-5,5v38c0,2.757,2.243,5,5,5h38c2.757,0,5-2.243,5-5V13c0-2.757-2.243-5-5-5H13z"/><path fill="#8d6c9f" d="M16.651,20.127c-0.298,0-0.592-0.132-0.789-0.385l-1.231-1.576 c-0.34-0.435-0.263-1.063,0.173-1.403c0.436-0.341,1.063-0.263,1.403,0.173l1.231,1.576c0.34,0.435,0.263,1.063-0.173,1.403 C17.083,20.058,16.866,20.127,16.651,20.127z"/><path fill="#8d6c9f" d="M20.619,17.628c-0.367,0-0.722-0.203-0.896-0.555l-0.892-1.791 c-0.246-0.494-0.045-1.095,0.45-1.341c0.493-0.245,1.096-0.044,1.341,0.45l0.892,1.791c0.246,0.494,0.045,1.095-0.45,1.341 C20.921,17.595,20.769,17.628,20.619,17.628z"/><path fill="#8d6c9f" d="M25.009,15.952c-0.438,0-0.839-0.289-0.963-0.731l-0.536-1.927 c-0.147-0.532,0.164-1.084,0.695-1.232c0.531-0.146,1.083,0.163,1.232,0.695l0.536,1.927c0.147,0.532-0.164,1.084-0.695,1.232 C25.188,15.94,25.098,15.952,25.009,15.952z"/><path fill="#8d6c9f" d="M29.642,15.111c-0.513,0-0.949-0.392-0.995-0.912l-0.177-1.992 c-0.049-0.55,0.357-1.035,0.907-1.084c0.566-0.054,1.037,0.358,1.085,0.908l0.177,1.992c0.049,0.55-0.357,1.035-0.907,1.084 C29.701,15.11,29.671,15.111,29.642,15.111z"/><path fill="#8d6c9f" d="M34.358,15.111c-0.029,0-0.06-0.001-0.09-0.004c-0.55-0.049-0.956-0.534-0.907-1.084l0.177-1.992 c0.049-0.55,0.523-0.963,1.085-0.908c0.55,0.049,0.956,0.534,0.907,1.084l-0.177,1.992C35.308,14.72,34.871,15.111,34.358,15.111z"/><path fill="#8d6c9f" d="M38.991,15.952c-0.089,0-0.18-0.012-0.27-0.036c-0.531-0.148-0.843-0.7-0.695-1.232l0.536-1.927 c0.149-0.531,0.701-0.841,1.232-0.695c0.531,0.148,0.843,0.7,0.695,1.232l-0.536,1.927C39.83,15.662,39.429,15.952,38.991,15.952z"/><path fill="#8d6c9f" d="M43.381,17.628c-0.149,0-0.302-0.033-0.444-0.104c-0.495-0.246-0.696-0.847-0.45-1.341l0.892-1.791 c0.246-0.494,0.849-0.695,1.341-0.45c0.495,0.246,0.696,0.847,0.45,1.341l-0.892,1.791C44.103,17.425,43.748,17.628,43.381,17.628 z"/><path fill="#8d6c9f" d="M47.349,20.127c-0.215,0-0.432-0.069-0.614-0.212c-0.436-0.34-0.513-0.969-0.173-1.403l1.231-1.576 c0.339-0.436,0.967-0.514,1.403-0.173c0.436,0.34,0.513,0.969,0.173,1.403l-1.231,1.576C47.94,19.995,47.646,20.127,47.349,20.127 z"/><path fill="#faefde" d="M50,34c0,1.37-0.22,2.69-0.64,3.95C47.29,44.32,40.3,49,32,49c-1.67,0-3.28-0.2-4.82-0.56	C25.31,50.21,22.54,52,19,52c0,0,3-2.25,3.15-5.45c-3.63-1.98-6.35-5.03-7.52-8.6C14.22,36.69,14,35.36,14,34c0-8.28,8.06-15,18-15	S50,25.72,50,34z"/><path fill="#fff8ee" d="M50,34c0,1.37-0.22,2.69-0.64,3.95C47.45,37.64,46,35.99,46,34c0-6.07-6.28-11-14-11s-14,4.93-14,11	c0,1.99-1.46,3.65-3.37,3.95C14.22,36.69,14,35.36,14,34c0-8.28,8.06-15,18-15S50,25.72,50,34z"/><path fill="#8d6c9f" d="M19,53c-0.431,0-0.813-0.275-0.948-0.684c-0.137-0.407,0.004-0.857,0.348-1.115	c0.022-0.018,2.247-1.733,2.683-4.112C16.008,44.089,13,39.24,13,34c0-8.822,8.523-16,19-16s19,7.178,19,16s-8.523,16-19,16	c-1.496,0-3.016-0.158-4.523-0.472C24.913,51.802,21.992,53,19,53z M32,20c-9.374,0-17,6.28-17,14c0,4.696,2.852,9.059,7.629,11.668	c0.336,0.184,0.538,0.544,0.52,0.926c-0.077,1.603-0.751,2.979-1.491,4.026c1.692-0.493,3.313-1.465,4.841-2.907	c0.244-0.229,0.586-0.317,0.912-0.247C28.939,47.82,30.484,48,32,48c9.374,0,17-6.28,17-14S41.374,20,32,20z"/></svg>